<svg width="54" height="79" viewBox="0 0 54 79" xmlns="http://www.w3.org/2000/svg">
    <defs>
        <filter id="f2" x="0" y="0" width="1" height="1">
            <feBlend mode="overlay" in="Backgroundcolor" in2="SourceGraphic" />
        </filter>
    </defs>
    <g clip-path="url(#clip0_26_43)">
        <path
            d="M53 17.1525L52.6847 17.1525C52.6847 17.3507 52.6597 17.539 52.6878 17.7177C52.7908 18.3803 52.4693 18.9032 52.1977 19.4488C52.0198 19.8029 51.9511 20.2478 51.7013 20.5174C51.3735 20.8682 51.4766 21.2515 51.4172 21.7549C51.1082 21.4334 50.796 21.206 50.6118 20.8942C50.3215 20.394 50.1529 19.8191 49.8657 19.3189C49.6347 18.9162 49.5691 18.4095 49.1508 18.1172C49.0415 18.0392 48.9978 17.8281 48.9635 17.669C48.9198 17.4578 49.0634 17.1655 48.7044 17.1071C48.6763 17.1006 48.6732 16.9609 48.6451 16.8894C48.5795 16.7303 48.5202 16.5679 48.4297 16.425C48.2986 16.2171 48.2705 16.0482 48.4671 15.8598C48.7356 15.6065 48.7231 15.0478 48.4578 14.814C48.1862 14.5736 47.9489 14.3268 48.0176 13.8981C48.0332 13.8039 47.8958 13.6837 47.8272 13.5765C47.7991 13.5343 47.7429 13.5083 47.7304 13.4628C47.5899 12.9984 47.4525 12.5307 47.2996 12.0045C47.0748 12.0142 47.0623 11.7934 47.0935 11.553C47.1341 11.2217 47.0436 10.9749 46.7657 10.767C46.6221 10.6566 46.5816 10.4097 46.4629 10.2473C46.3193 10.0525 46.157 9.86733 45.9728 9.71467C45.798 9.56851 45.5576 9.5068 45.3953 9.3509C44.9395 8.90918 44.5243 8.42523 44.0654 7.98675C43.8156 7.74965 43.5066 7.57426 43.2256 7.36964C43.1195 7.29169 43.004 7.22023 42.929 7.1163C42.7386 6.85971 42.5107 6.76227 42.1954 6.77526C42.0581 6.78176 41.9176 6.62585 41.7709 6.55765C41.6834 6.51542 41.5804 6.4667 41.4899 6.47645C41.1621 6.50893 40.8999 6.40499 40.7157 6.11917C40.416 5.65796 39.9196 5.47607 39.4888 5.21624C39.2921 5.09606 38.9831 5.18376 38.724 5.17401C38.5679 5.16752 38.3774 5.23248 38.3462 4.9564C38.34 4.91417 38.2057 4.86221 38.1277 4.85571C37.9217 4.84272 37.7125 4.85571 37.5065 4.84921C37.3379 4.84272 37.1318 4.91418 37.0975 4.62186C37.0944 4.58288 36.9508 4.53741 36.8727 4.53416C36.5106 4.52442 36.1453 4.52767 35.7832 4.53092C35.7208 4.53092 35.6084 4.54066 35.6021 4.56664C35.496 5.01161 35.1495 4.83622 34.9029 4.84272C34.113 4.86221 33.3201 4.85246 32.5303 4.84921C32.3586 4.84921 32.1588 4.90443 32.112 4.61861C32.1057 4.57314 31.9403 4.53416 31.8466 4.53092C31.1973 4.52442 30.5511 4.52442 29.9017 4.53092C29.8268 4.53092 29.73 4.52767 29.6801 4.56989C29.2274 4.96614 28.8528 4.95315 28.3346 4.58288C28.2222 4.50168 27.9849 4.57314 27.8164 4.61861C27.6634 4.66084 27.5291 4.81674 27.3793 4.83623C27.1108 4.87195 26.8361 4.84922 26.5645 4.84597C26.4865 4.84597 26.3585 4.85571 26.3397 4.81998C26.1368 4.36852 25.987 4.68032 25.7466 4.8005C25.5093 4.92067 25.1909 4.94016 24.9443 4.6316C24.5385 4.12167 23.9984 3.86833 23.349 3.87807C22.6622 3.88781 21.9723 3.86508 21.2855 3.88782C21.0264 3.89431 20.7236 3.73841 20.5207 4.13142C20.4582 4.25159 20.0618 4.18013 19.8183 4.20612C19.6372 4.22561 19.4 4.09893 19.325 4.43348C19.3125 4.49194 19.0597 4.54715 18.9379 4.51792C18.401 4.388 18.0264 4.77776 17.5924 4.9564C17.2053 5.1123 16.8026 5.26821 16.4748 5.52155C16.147 5.77814 15.685 5.68395 15.4758 5.86583C15.1512 6.15165 14.7172 5.986 14.5455 6.17763C14.2302 6.53166 13.8088 6.31405 13.5715 6.50243C13.1001 6.87595 12.4789 6.80124 12.045 7.15203C11.764 7.37938 11.5049 7.47358 11.1709 7.42811C11.1272 7.42161 11.071 7.45733 11.0304 7.48657C10.6745 7.75615 10.3373 8.05171 9.96584 8.29856C9.52254 8.59088 9.04491 8.83448 8.59536 9.11705C8.43303 9.22098 8.29567 9.37039 8.15831 9.5133C7.1406 10.5721 6.12601 11.631 5.1083 12.6898C5.07084 12.7288 5.04587 12.7938 5.00216 12.8067C4.16552 13.0763 4.178 13.9695 3.80026 14.5736C3.46935 15.1063 3.21024 15.6877 2.91991 16.2496C2.90118 16.2853 2.86996 16.3308 2.87621 16.36C3.02605 16.8635 2.69514 17.2792 2.48598 17.591C2.20502 18.01 2.27682 18.3998 2.23936 18.8122C2.23311 18.8642 2.23311 18.9487 2.20502 18.9649C1.72738 19.2312 1.99274 19.6892 1.93654 20.0627C1.89908 20.316 2.0021 20.6051 1.6868 20.7643C1.62748 20.7968 1.62124 20.9819 1.62124 21.0988C1.615 21.9205 1.62124 22.7423 1.62124 23.603C1.29033 23.5673 1.26848 23.7394 1.27472 24.0317C1.30906 25.2854 1.30282 26.5392 1.3153 27.7929C1.3153 28.0202 1.23414 28.1534 1.00624 28.1631C1 25.7856 1 23.4114 1 21.0371C1.09678 21.0339 1.19667 21.0274 1.31842 21.0209C1.31842 20.5077 1.31218 20.0237 1.32155 19.5398C1.32155 19.4099 1.3434 19.189 1.39959 19.1695C1.70865 19.0721 1.60875 18.8187 1.63997 18.6141C1.69929 18.1919 1.52446 17.7599 1.9022 17.3442C2.09263 17.1363 1.93654 16.6458 2.24248 16.3146C2.41418 16.1294 2.17068 15.7169 2.52032 15.4181C2.70139 15.2622 2.68578 14.7588 2.81689 14.408C2.95113 14.0507 3.01981 13.6252 3.19463 13.2647C3.4912 12.6573 3.79714 12.0565 4.13742 11.4751C4.39653 11.0366 4.71808 10.6371 4.99904 10.2149C5.39551 9.62049 5.70145 8.93516 6.18533 8.43173C6.87525 7.71068 7.48088 6.90193 8.37059 6.35952C8.89506 6.04122 9.3727 5.56052 9.88779 5.17726C10.2905 4.87845 10.6932 4.57963 11.0959 4.28407C11.1272 4.26133 11.1677 4.25484 11.2052 4.2386C11.9326 3.87482 12.66 3.51105 13.3905 3.14728C13.6059 3.04009 13.9212 2.98813 14.018 2.80949C14.1522 2.55615 14.3176 2.6406 14.4862 2.58863C14.8546 2.4782 15.3104 2.43273 15.5445 2.17614C15.7724 1.92604 15.9691 1.98126 16.197 1.94553C16.3156 1.92604 16.5279 1.90006 16.5373 1.85134C16.581 1.55902 16.7808 1.64022 16.9493 1.62398C17.1242 1.60774 17.4363 1.61099 17.4519 1.54603C17.5362 1.192 17.7829 1.32842 17.9733 1.29919C18.1106 1.2797 18.3541 1.29269 18.3729 1.23747C18.4853 0.850966 18.7756 1.01336 19.0035 0.974389C19.1221 0.951653 19.3344 0.932166 19.3438 0.883446C19.3875 0.594377 19.5841 0.656086 19.7558 0.652838C20.0555 0.64959 20.3521 0.659333 20.6518 0.646341C20.7423 0.643093 20.9047 0.587877 20.9078 0.539157C20.9421 0.266328 21.1294 0.328041 21.2855 0.328041C21.7881 0.324793 22.2876 0.328041 22.7996 0.328041L22.7996 -2.04587e-06L32.4522 -2.4678e-06C32.4273 0.0974366 32.4054 0.191626 32.3711 0.328041C33.0017 0.328041 33.5855 0.308552 34.1661 0.337784C34.4564 0.354024 34.8467 0.13316 35.009 0.620356C35.0215 0.652836 35.1526 0.64959 35.2275 0.652838C35.4086 0.656086 35.5959 0.623607 35.7707 0.659335C36.1485 0.737286 36.6292 0.399494 36.8946 0.954896C36.9133 0.990624 37.0413 0.974388 37.1193 0.974388C37.419 0.974388 37.7156 0.974387 38.0153 0.977635C38.1058 0.977635 38.2557 0.977634 38.2713 1.02311C38.4555 1.48757 38.8395 1.23747 39.1329 1.29919C39.2796 1.32842 39.5419 1.32842 39.5575 1.39013C39.6387 1.71817 39.8665 1.598 40.0507 1.62073C40.2006 1.64022 40.4722 1.63697 40.4815 1.68894C40.5533 2.03972 40.8031 1.90656 40.9935 1.94878C41.1621 1.98451 41.3276 2.04946 41.4805 2.12741C41.749 2.26708 41.9956 2.51717 42.2703 2.55939C42.6231 2.60811 42.9228 2.69581 43.235 2.88095C43.6752 3.14403 44.1934 3.25771 44.5399 3.68644C44.5961 3.75465 44.6773 3.81311 44.7584 3.84884C45.2673 4.06645 45.7949 4.25159 46.157 4.72904C46.2069 4.794 46.3131 4.81024 46.3911 4.85571C46.5441 4.94341 46.7314 5.00187 46.8375 5.12854C47.0623 5.39812 47.2933 5.55402 47.6617 5.5183C47.8022 5.5053 48.002 5.64497 48.1019 5.77489C48.3173 6.06071 48.5514 6.21012 48.9167 6.1614C49.0291 6.14516 49.1851 6.24584 49.2788 6.33679C50.0842 7.13579 50.7117 8.03547 50.8147 9.24047C50.8179 9.27945 50.8303 9.3509 50.8428 9.3509C51.2674 9.40287 51.0551 9.79263 51.1706 10.0525L52.0572 10.0525C52.0572 10.2993 52.0791 10.5039 52.051 10.7021C52.001 11.0723 52.1321 11.3224 52.4006 11.566C52.5505 11.7024 52.6098 11.9623 52.6722 12.1766C52.7097 12.3098 52.6785 12.4625 52.6785 12.6184L52.9938 12.6184L52.9938 17.1493L53 17.1525Z"
            fill="#F2F2F2"
            filter="url(#f2)"
        />
        <path
            d="M53.0001 53.0784L52.7379 53.0784C52.7192 53.1142 52.6911 53.1401 52.6942 53.1596C52.8503 54.121 52.2727 54.8388 51.9231 55.6281C51.5703 56.4271 51.1864 57.2131 50.7899 57.9894C50.5807 58.3986 50.3029 58.7656 50.075 59.1651C49.8939 59.4834 49.741 59.818 49.5786 60.1493C49.5443 60.2207 49.5412 60.3084 49.4975 60.3734C49.2664 60.7372 49.0542 61.1172 48.7888 61.4485C47.9334 62.5138 47.1561 63.6603 46.1197 64.5503C45.6077 64.9887 45.0145 65.3265 44.4557 65.713C44.3933 65.7585 44.3215 65.7975 44.2747 65.856C43.925 66.2977 43.4224 66.4633 42.9417 66.6679C42.873 66.6972 42.7918 66.7264 42.745 66.7816C42.208 67.415 41.4432 67.6358 40.7439 67.9801C40.3943 68.1523 40.0821 68.4056 39.7512 68.6167C39.414 68.8311 39.08 69.0552 38.7303 69.2468C38.1934 69.5424 37.6471 69.812 37.1039 70.0978C36.6169 70.3544 36.1299 70.6142 35.6429 70.8676C35.0872 71.1566 34.5502 71.4879 33.9696 71.712C33.5637 71.8679 33.2422 72.2252 32.7458 72.196C32.5148 72.183 32.2682 72.3941 32.0372 72.5208C31.7281 72.6929 31.4315 72.8878 31.1225 73.0567C31.0257 73.1119 30.9039 73.1282 30.7884 73.1412C30.5637 73.1671 30.3077 73.0502 30.1828 73.3945C30.1578 73.466 29.8987 73.4465 29.7458 73.466C29.5709 73.4854 29.3743 73.3945 29.2775 73.6836C29.2494 73.768 28.9559 73.7648 28.7811 73.7875C28.6157 73.8102 28.4284 73.7258 28.3503 74.0019C28.3285 74.0766 28.0818 74.0831 27.9351 74.1123C27.7447 74.148 27.4793 73.9986 27.4138 74.3591C27.4044 74.4046 27.2077 74.4209 27.0953 74.4371C26.8643 74.4696 26.5865 74.3267 26.4522 74.6904C26.4241 74.7619 26.165 74.7327 26.0152 74.7651C25.7373 74.8204 25.4033 74.606 25.1848 75.0282C25.1224 75.1452 24.7228 75.0672 24.4793 75.0899C24.2982 75.1062 24.0485 74.9828 23.9985 75.327C23.9923 75.3693 23.8174 75.3888 23.7207 75.4115C23.371 75.4927 22.9589 75.2264 22.6624 75.6908C22.5874 75.8077 22.2191 75.7233 21.9881 75.7395C21.8007 75.7525 21.5729 75.6486 21.4917 75.9701C21.4761 76.0318 21.2357 76.0383 21.0983 76.0611C20.7893 76.1163 20.4053 75.8954 20.1899 76.3372C20.1649 76.3924 19.9963 76.3826 19.8933 76.3826C19.6217 76.3891 19.347 76.3696 19.0754 76.3924C18.9568 76.4021 18.8475 76.5158 18.7258 76.5483C18.4979 76.6132 18.2606 76.6555 18.0296 76.7074C17.8204 76.7529 17.5145 76.5613 17.4583 76.9705C16.862 76.964 16.2627 76.9608 15.6664 76.9543C15.4666 76.4866 15.0951 76.7334 14.8016 76.7561C14.5738 76.7756 14.3552 76.9608 14.1336 76.964C13.7184 76.9738 13.3937 77.1069 13.1471 77.4577C12.966 77.7111 12.8037 77.737 12.5415 77.5032C12.3854 77.3635 12.095 77.3992 11.8671 77.3375C11.761 77.3083 11.6642 77.2336 11.5643 77.1816C11.5799 77.1329 11.5955 77.0874 11.6143 77.0387C11.8703 77.0387 12.1294 77.0387 12.3854 77.0387C12.5852 77.0387 12.7444 77.0225 12.9286 76.8568C13.0909 76.7107 13.4187 76.7821 13.6684 76.7237C13.8464 76.6814 14.0087 76.584 14.1835 76.5223C14.3271 76.4703 14.477 76.4249 14.6268 76.4021C14.7985 76.3761 15.0014 76.4411 15.0452 76.1618C15.0514 76.1195 15.1919 76.0806 15.2699 76.0741C15.5041 76.0611 15.7382 76.0741 15.9692 76.0676C16.0566 76.0676 16.2127 76.0481 16.219 76.0156C16.2939 75.6161 16.5904 75.7655 16.8059 75.7525C17.0899 75.733 17.3771 75.7298 17.6612 75.7525C18.2356 75.7947 18.707 75.5999 19.091 75.1516C19.1316 75.1062 19.2315 75.1062 19.3064 75.1029C19.5125 75.0964 19.7247 75.0769 19.9277 75.1029C20.3241 75.1614 20.5957 75.0022 20.8798 74.7132C21.1077 74.4793 21.448 74.3689 21.7321 74.1935C21.9381 74.0668 22.1348 73.9239 22.3408 73.794C22.6592 73.5959 22.9808 73.4042 23.2992 73.2126C23.6707 72.9885 24.1203 72.9203 24.4231 72.5435C24.5011 72.4461 24.7727 72.537 24.9475 72.4981C25.0693 72.4721 25.1754 72.3616 25.2941 72.3032C25.3971 72.2512 25.5095 72.2187 25.6187 72.183C25.8404 72.1115 26.0776 72.0791 26.2805 71.9719C26.7395 71.7283 27.1796 71.4457 27.6292 71.1794C27.6635 71.1599 27.6978 71.1404 27.7291 71.1144C28.266 70.6662 28.7874 70.205 29.3399 69.7795C29.5834 69.5911 29.8737 69.4612 30.1516 69.3313C30.6511 69.0942 31.1506 68.8733 31.5564 68.4576C31.7562 68.253 32.0777 68.1815 32.3337 68.0353C32.5429 67.9152 32.7552 67.7917 32.9425 67.6358C33.5263 67.1486 34.0414 66.5315 34.6907 66.1775C35.8551 65.5409 36.5513 64.4139 37.5003 63.5564C37.825 63.2641 38.0529 62.8321 38.5337 62.7541C38.568 62.7476 38.6086 62.7217 38.6304 62.6924C39.3172 61.8674 40.2069 61.2926 40.9843 60.578C41.7023 59.9187 42.3766 59.2041 43.0259 58.4668C43.5598 57.8595 44.0967 57.2326 44.4963 56.531C44.7585 56.0698 45.0832 55.6963 45.411 55.3033C45.4922 55.2059 45.5078 55.0532 45.5858 54.9493C45.7169 54.7739 45.8543 54.5952 46.0198 54.4588C46.2258 54.2899 46.5036 54.199 46.6753 54.0041C47.0687 53.5494 47.6025 53.361 48.0864 53.0719C48.4267 52.8673 48.7014 52.51 48.9418 52.1755C49.1135 51.9352 49.1759 51.6169 49.2914 51.3343C49.3164 51.2758 49.3538 51.2076 49.4038 51.1784C49.6348 51.0387 49.7035 50.938 49.41 50.7659C49.3289 50.7172 49.2883 50.4443 49.3382 50.3242C49.6192 49.6811 49.8658 49.0022 50.2592 48.4371C50.5401 48.0343 50.4933 47.6511 50.5183 47.2386C50.5214 47.1606 50.5245 47.0177 50.5526 47.0112C50.9647 46.904 50.7555 46.5435 50.8398 46.3064C50.9585 45.9784 51.1302 45.6698 51.2987 45.3645C51.3237 45.319 51.4954 45.2995 51.5422 45.3418C51.792 45.5594 52.1166 45.7218 52.0698 46.1635C52.048 46.3551 51.9793 46.6117 52.3071 46.6604C52.3445 46.6669 52.3539 46.8975 52.3726 47.0242C52.4039 47.2418 52.2665 47.5277 52.6099 47.6251C52.6567 47.6381 52.6786 47.8102 52.6786 47.9109C52.6848 48.3267 52.6817 48.7456 52.6817 49.1906C52.8034 49.1971 52.9002 49.2004 52.997 49.2069L52.997 53.0914L53.0001 53.0784Z"
            fill="#F2F2F2"
            filter="url(#f2)"
        />
        <path
            d="M7.54028 78.0001C7.65267 77.9026 7.76817 77.724 7.88368 77.7207C8.53614 77.711 9.1886 77.737 9.84106 77.7727C9.90974 77.776 9.96905 77.9221 10.0346 78.0001C9.20109 78.0001 8.37068 78.0001 7.54028 78.0001Z"
            fill="#F2F2F2"
            filter="url(#f2)"
        />
        <path
            d="M20.3771 32.6942C20.8829 32.6942 21.3886 32.6877 21.8912 32.7007C21.9849 32.7007 22.1004 32.7721 22.1628 32.8501C22.3532 33.0969 22.6217 33.0937 22.8028 32.8371C22.8527 32.7689 22.9526 32.7072 23.0338 32.7007C23.2804 32.6812 23.527 32.7104 23.7705 32.6844C23.8673 32.6747 23.9516 32.5578 24.0484 32.509C24.1608 32.4506 24.2825 32.3759 24.4011 32.3759C26.0994 32.3661 27.8008 32.3759 29.4991 32.3661C29.6895 32.3661 29.9673 32.4928 29.9923 32.1063C29.9923 32.0803 30.1515 32.0478 30.2358 32.0478C33.751 32.0478 37.2692 32.0446 40.7844 32.0543C40.9124 32.0543 41.0404 32.1972 41.1715 32.2622C41.2558 32.3044 41.3463 32.3564 41.4369 32.3629C41.7085 32.3759 41.9832 32.3629 42.2548 32.3694C42.4483 32.3759 42.6825 32.2979 42.7543 32.613C42.7636 32.6584 42.9322 32.6844 43.029 32.6877C43.3537 32.6974 43.6783 32.6779 44.003 32.6974C44.234 32.7104 44.5431 32.5675 44.6367 32.967C44.6461 33.0027 44.8022 33.0125 44.8896 33.0125C45.2517 33.019 45.617 33.006 45.9791 33.019C46.1789 33.0255 46.4474 32.9183 46.4848 33.2788C46.5816 33.2658 46.7127 33.2886 46.7658 33.2301C47.053 32.928 47.4651 32.928 47.7242 33.2333C47.7835 33.3048 47.924 33.3308 48.027 33.334C48.4672 33.3438 48.9167 33.3925 49.3475 33.3243C49.8907 33.2366 50.2685 33.6004 50.7211 33.7498C50.9521 33.8277 51.1613 33.9804 51.4235 34.1233L51.4235 34.5455C50.6774 34.8866 49.8782 35.0425 49.1696 35.4907C48.7232 35.7732 48.2237 35.9454 47.6368 35.9389C44.3932 35.8967 41.1497 35.9162 37.9061 35.9227C37.7157 35.9227 37.4534 35.7992 37.3848 36.1598C37.3754 36.2085 37.1756 36.2345 37.0663 36.2377C36.6511 36.2475 36.2359 36.228 35.8207 36.2475C35.596 36.2572 35.2963 36.1013 35.187 36.4975C35.1745 36.5495 34.9747 36.5625 34.8623 36.5625C34.291 36.569 33.7197 36.5787 33.1485 36.5625C32.8831 36.5528 32.5397 36.7152 32.393 36.2897C32.3774 36.2475 32.2275 36.2507 32.1401 36.2442C31.8904 36.228 31.6375 36.2799 31.4502 35.9909C31.4002 35.9162 31.0974 35.9909 30.9195 36.0396C30.7884 36.0753 30.6729 36.2215 30.5449 36.2312C30.1453 36.2572 29.7394 36.2539 29.3398 36.2312C29.2337 36.2247 29.1369 36.1013 29.0277 36.0461C28.9215 35.9941 28.8091 35.9259 28.6968 35.9259C27.8913 35.9162 27.089 35.9227 26.2836 35.9194C26.1244 35.9194 25.9402 35.9714 25.8934 35.705C25.884 35.6531 25.7029 35.6044 25.5999 35.6044C24.885 35.5946 24.1733 35.6076 23.4584 35.5881C23.3397 35.5881 23.2305 35.4549 23.1087 35.3965C23.0026 35.3445 22.8871 35.2828 22.7747 35.2796C22.1784 35.2666 21.5821 35.2763 20.9859 35.2731C20.8267 35.2731 20.6456 35.3185 20.5988 35.0554C20.5894 35.0035 20.4052 34.958 20.3022 34.958C19.6935 34.9483 19.0816 34.9645 18.4728 34.9418C18.3542 34.9385 18.2449 34.8054 18.1263 34.7501C18.0202 34.6982 17.9047 34.6365 17.7923 34.6365C17.1055 34.6267 16.4155 34.6332 15.7288 34.63C15.5571 34.63 15.3573 34.6787 15.3011 34.4026C15.2917 34.3539 15.1294 34.3149 15.0357 34.3149C14.5955 34.3052 14.1522 34.2987 13.7121 34.3149C13.4842 34.3247 13.1876 34.1752 13.0752 34.565C13.0596 34.617 12.8629 34.63 12.7505 34.63C10.4935 34.63 8.2364 34.63 5.97934 34.6267C4.44965 34.6267 2.91996 34.6267 1.36842 34.6267C1.27477 34.4124 1.31847 34.3182 1.56197 34.3182C2.27687 34.3247 2.98864 34.3214 3.70354 34.3182C3.88772 34.3182 4.09376 34.3831 4.17181 34.0908C4.18742 34.0323 4.39658 34.0031 4.51833 33.9999C5.50482 33.9934 6.49131 33.9999 7.47781 33.9966C7.6495 33.9966 7.84306 34.0583 7.90549 33.779C7.91798 33.7238 8.10217 33.6816 8.20831 33.6816C8.71404 33.6718 9.21978 33.6816 9.72551 33.6751C9.82541 33.6751 10.0065 33.6491 10.0096 33.6198C10.0502 33.2106 10.3499 33.3633 10.5434 33.36C11.2958 33.3438 12.0481 33.3568 12.8005 33.3535C12.9597 33.3535 13.1501 33.4055 13.1782 33.1327C13.1814 33.0937 13.3187 33.0417 13.3936 33.0385C13.6278 33.0255 13.8619 33.0157 14.0929 33.0417C14.1991 33.0547 14.2896 33.1814 14.3989 33.2074C14.5862 33.2528 14.9389 33.3145 14.9514 33.2788C15.0607 32.9378 15.3167 33.045 15.529 33.0352C15.7506 33.0255 15.9754 33.0612 16.1877 33.0255C16.3406 32.9995 16.4998 32.915 16.6185 32.8111C16.8027 32.6487 17.3677 32.6844 17.5144 32.8793C17.5737 32.9573 17.6892 33.0255 17.7798 33.0287C18.5321 33.0417 19.2845 33.045 20.0369 33.0255C20.168 33.0222 20.2928 32.8826 20.424 32.8079C20.4115 32.7754 20.4021 32.7461 20.3896 32.7137L20.3771 32.6942Z"
            fill="#F2F2F2"
            filter="url(#f2)"
        />
        <path
            d="M13.4468 77.4154L14.733 77.4154C14.4052 77.7239 13.734 77.7239 13.4468 77.4154Z"
            fill="#F2F2F2"
            filter="url(#f2)"
        />
    </g>
</svg>